<svg width="14" height="14" viewBox="0 0 14 14" fill="none" xmlns="http://www.w3.org/2000/svg">
<rect x="0.642026" y="0.425046" width="12.7677" height="12.7677" stroke="white" stroke-width="0.41186"/>
<g clip-path="url(#clip0_288_952)">
<path d="M6.97526 5.14366C6.0496 5.14366 5.30296 5.88645 5.30296 6.80735C5.30296 7.72824 6.0496 8.47103 6.97526 8.47103C7.90093 8.47103 8.64757 7.72824 8.64757 6.80735C8.64757 5.88645 7.90093 5.14366 6.97526 5.14366ZM6.97526 7.88896C6.37708 7.88896 5.88805 7.4039 5.88805 6.80735C5.88805 6.21079 6.37562 5.72573 6.97526 5.72573C7.57491 5.72573 8.06248 6.21079 8.06248 6.80735C8.06248 7.4039 7.57345 7.88896 6.97526 7.88896ZM9.10603 5.07561C9.10603 5.29135 8.93138 5.46365 8.71598 5.46365C8.49911 5.46365 8.32592 5.2899 8.32592 5.07561C8.32592 4.86131 8.50057 4.68756 8.71598 4.68756C8.93138 4.68756 9.10603 4.86131 9.10603 5.07561ZM10.2136 5.46945C10.1889 4.94963 10.0695 4.48919 9.68676 4.10983C9.30543 3.73047 8.8426 3.61173 8.32009 3.58567C7.78158 3.55526 6.16749 3.55526 5.62898 3.58567C5.10793 3.61029 4.6451 3.72902 4.26232 4.10838C3.87954 4.48774 3.76165 4.94819 3.73545 5.468C3.70488 6.00374 3.70488 7.60951 3.73545 8.14525C3.76019 8.66506 3.87954 9.1255 4.26232 9.50486C4.6451 9.88423 5.10648 10.003 5.62898 10.029C6.16749 10.0594 7.78158 10.0594 8.32009 10.029C8.8426 10.0044 9.30543 9.88567 9.68676 9.50486C10.0681 9.1255 10.1874 8.66506 10.2136 8.14525C10.2442 7.60951 10.2442 6.00519 10.2136 5.46945ZM9.51792 8.72008C9.4044 9.00388 9.18463 9.22252 8.89791 9.3369C8.46855 9.50631 7.44974 9.46722 6.97526 9.46722C6.50079 9.46722 5.48052 9.50486 5.05262 9.3369C4.76736 9.22396 4.54759 9.00532 4.43261 8.72008C4.26232 8.29294 4.30162 7.27938 4.30162 6.80735C4.30162 6.33532 4.26377 5.32031 4.43261 4.89461C4.54613 4.61082 4.7659 4.39218 5.05262 4.27779C5.48198 4.10838 6.50079 4.14747 6.97526 4.14747C7.44974 4.14747 8.47001 4.10983 8.89791 4.27779C9.18317 4.39073 9.40294 4.60937 9.51792 4.89461C9.68821 5.32176 9.64891 6.33532 9.64891 6.80735C9.64891 7.27938 9.68821 8.29438 9.51792 8.72008Z" fill="white"/>
</g>
<defs>
<clipPath id="clip0_288_952">
<rect width="6.58976" height="7.41348" fill="white" transform="translate(3.73102 3.10181)"/>
</clipPath>
</defs>
</svg>
