<svg width="14" height="14" viewBox="0 0 14 14" fill="none" xmlns="http://www.w3.org/2000/svg">
<rect x="0.8728" y="0.425046" width="12.7677" height="12.7677" stroke="white" stroke-width="0.41186"/>
<g clip-path="url(#clip0_288_947)">
<path d="M5.42487 9.69157V5.52335H4.02694V9.69157H5.42487ZM4.72608 4.95391C5.21357 4.95391 5.517 4.63384 5.517 4.23386C5.50792 3.82486 5.21358 3.51367 4.73533 3.51367C4.25716 3.51367 3.94446 3.82486 3.94446 4.23386C3.94446 4.63386 4.24782 4.95391 4.71696 4.95391H4.72604H4.72608ZM6.19862 9.69157H7.59655V7.36384C7.59655 7.23926 7.60563 7.11481 7.64255 7.02576C7.74361 6.77686 7.97362 6.51906 8.35979 6.51906C8.86564 6.51906 9.06801 6.9013 9.06801 7.46164V9.69154H10.4659V7.30153C10.4659 6.02121 9.77619 5.4255 8.85644 5.4255C8.10231 5.4255 7.7712 5.84326 7.58725 6.12779H7.59658V5.52327H6.19865C6.21699 5.91439 6.19865 9.69149 6.19865 9.69149L6.19862 9.69157Z" fill="white"/>
</g>
<defs>
<clipPath id="clip0_288_947">
<rect width="6.58976" height="6.1779" fill="white" transform="translate(3.96173 3.51392)"/>
</clipPath>
</defs>
</svg>
