<svg width="15" height="14" viewBox="0 0 15 14" fill="none" xmlns="http://www.w3.org/2000/svg">
<rect x="1.10351" y="0.425046" width="12.7677" height="12.7677" stroke="white" stroke-width="0.41186"/>
<g clip-path="url(#clip0_288_942)">
<path d="M11.1031 4.62818C10.8285 4.74535 10.5371 4.82225 10.2388 4.85634C10.5495 4.67702 10.7881 4.39305 10.9005 4.0547C10.6051 4.22348 10.2819 4.3424 9.94483 4.40632C9.67029 4.12472 9.27919 3.94873 8.84632 3.94873C8.01518 3.94873 7.34132 4.59751 7.34132 5.39769C7.34132 5.51127 7.35464 5.62185 7.38029 5.72792C6.12954 5.66748 5.02063 5.09063 4.27834 4.21397C4.14883 4.42797 4.07461 4.67691 4.07461 4.94242C4.07461 5.44514 4.34032 5.88863 4.74412 6.14849C4.50513 6.14128 4.2714 6.07913 4.06244 5.96723C4.06235 5.9733 4.06235 5.97937 4.06235 5.98546C4.06235 6.68751 4.5811 7.27317 5.26955 7.40628C5.04793 7.46431 4.81547 7.4728 4.58993 7.43111C4.78142 8.00678 5.33723 8.42568 5.99575 8.43741C5.4807 8.82602 4.83177 9.05768 4.12671 9.05768C4.00521 9.05768 3.88544 9.05082 3.7677 9.03743C4.43371 9.44856 5.22476 9.68844 6.07464 9.68844C8.84282 9.68844 10.3565 7.4805 10.3565 5.56573C10.3565 5.50288 10.3551 5.4404 10.3522 5.37827C10.6468 5.17319 10.9011 4.91919 11.1031 4.62818Z" fill="white"/>
</g>
<defs>
<clipPath id="clip0_288_942">
<rect width="7.41348" height="5.76604" fill="white" transform="translate(3.78064 3.9259)"/>
</clipPath>
</defs>
</svg>
